<svg xmlns="http://www.w3.org/2000/svg" xmlns:xlink="http://www.w3.org/1999/xlink" width="2150" zoomAndPan="magnify" viewBox="0 0 1612.5 498.749982" height="665" preserveAspectRatio="xMidYMid meet" version="1.0"><defs><g/><clipPath id="1f85f76fba"><path d="M 72 55 L 137 55 L 137 149.925781 L 72 149.925781 Z M 72 55 " clip-rule="nonzero"/></clipPath><clipPath id="22fec90559"><rect x="0" width="507" y="0" height="150"/></clipPath><clipPath id="2c679f37e8"><rect x="0" width="933" y="0" height="286"/></clipPath><clipPath id="38e692ad9b"><path d="M 1215 103 L 1323 103 L 1323 212 L 1215 212 Z M 1215 103 " clip-rule="nonzero"/></clipPath><clipPath id="b498c36340"><path d="M 1193.378906 120.46875 L 1269.347656 50.253906 L 1374.164062 163.65625 L 1298.195312 233.871094 Z M 1193.378906 120.46875 " clip-rule="nonzero"/></clipPath><clipPath id="2ea97e0de1"><path d="M 1193.378906 120.46875 L 1269.347656 50.253906 L 1374.164062 163.65625 L 1298.195312 233.871094 Z M 1193.378906 120.46875 " clip-rule="nonzero"/></clipPath><clipPath id="a49f988880"><path d="M 1270 53 L 1377 53 L 1377 162 L 1270 162 Z M 1270 53 " clip-rule="nonzero"/></clipPath><clipPath id="3cb389631b"><path d="M 1247.933594 70.046875 L 1323.902344 -0.167969 L 1428.714844 113.234375 L 1352.746094 183.449219 Z M 1247.933594 70.046875 " clip-rule="nonzero"/></clipPath><clipPath id="844bb9b790"><path d="M 1247.933594 70.046875 L 1323.902344 -0.167969 L 1428.714844 113.234375 L 1352.746094 183.449219 Z M 1247.933594 70.046875 " clip-rule="nonzero"/></clipPath></defs><g transform="matrix(1, 0, 0, 1, 355, 314)"><g clip-path="url(#22fec90559)"><g fill="#003985" fill-opacity="1"><g transform="translate(0.744465, 124.434)"><g><path d="M 32.71875 -9.140625 C 46.144531 -9.140625 52.859375 -13.734375 52.859375 -22.921875 C 52.859375 -25.742188 52.257812 -28.148438 51.0625 -30.140625 C 49.875 -32.128906 48.265625 -33.851562 46.234375 -35.3125 C 44.203125 -36.769531 41.882812 -38.023438 39.28125 -39.078125 C 36.675781 -40.140625 33.914062 -41.203125 31 -42.265625 C 27.644531 -43.410156 24.460938 -44.710938 21.453125 -46.171875 C 18.453125 -47.628906 15.847656 -49.347656 13.640625 -51.328125 C 11.429688 -53.316406 9.6875 -55.679688 8.40625 -58.421875 C 7.125 -61.160156 6.484375 -64.472656 6.484375 -68.359375 C 6.484375 -76.398438 9.222656 -82.671875 14.703125 -87.171875 C 20.179688 -91.679688 27.734375 -93.9375 37.359375 -93.9375 C 42.921875 -93.9375 47.976562 -93.335938 52.53125 -92.140625 C 57.082031 -90.953125 60.414062 -89.648438 62.53125 -88.234375 L 58.421875 -77.765625 C 56.566406 -78.910156 53.804688 -80.035156 50.140625 -81.140625 C 46.472656 -82.242188 42.210938 -82.796875 37.359375 -82.796875 C 34.890625 -82.796875 32.59375 -82.53125 30.46875 -82 C 28.351562 -81.476562 26.5 -80.6875 24.90625 -79.625 C 23.3125 -78.5625 22.050781 -77.210938 21.125 -75.578125 C 20.195312 -73.941406 19.734375 -72.019531 19.734375 -69.8125 C 19.734375 -67.34375 20.21875 -65.269531 21.1875 -63.59375 C 22.164062 -61.914062 23.535156 -60.4375 25.296875 -59.15625 C 27.066406 -57.875 29.117188 -56.703125 31.453125 -55.640625 C 33.796875 -54.578125 36.382812 -53.519531 39.21875 -52.46875 C 43.1875 -50.875 46.828125 -49.28125 50.140625 -47.6875 C 53.453125 -46.101562 56.320312 -44.207031 58.75 -42 C 61.1875 -39.789062 63.066406 -37.160156 64.390625 -34.109375 C 65.710938 -31.066406 66.375 -27.378906 66.375 -23.046875 C 66.375 -15.015625 63.4375 -8.832031 57.5625 -4.5 C 51.6875 -0.175781 43.40625 1.984375 32.71875 1.984375 C 29.101562 1.984375 25.769531 1.738281 22.71875 1.25 C 19.675781 0.769531 16.960938 0.199219 14.578125 -0.453125 C 12.191406 -1.117188 10.132812 -1.828125 8.40625 -2.578125 C 6.6875 -3.328125 5.34375 -3.96875 4.375 -4.5 L 8.21875 -15.109375 C 10.25 -13.953125 13.335938 -12.664062 17.484375 -11.25 C 21.640625 -9.84375 26.71875 -9.140625 32.71875 -9.140625 Z M 32.71875 -9.140625 "/></g></g></g><g clip-path="url(#1f85f76fba)"><g fill="#003985" fill-opacity="1"><g transform="translate(72.547846, 124.434)"><g><path d="M 2.515625 12.84375 C 3.484375 13.289062 4.738281 13.710938 6.28125 14.109375 C 7.832031 14.503906 9.359375 14.703125 10.859375 14.703125 C 15.722656 14.703125 19.519531 13.617188 22.25 11.453125 C 24.988281 9.296875 27.460938 5.785156 29.671875 0.921875 C 24.109375 -9.671875 18.921875 -20.90625 14.109375 -32.78125 C 9.296875 -44.664062 5.300781 -56.703125 2.125 -68.890625 L 15.375 -68.890625 C 16.34375 -64.921875 17.507812 -60.640625 18.875 -56.046875 C 20.25 -51.453125 21.773438 -46.722656 23.453125 -41.859375 C 25.128906 -37.003906 26.9375 -32.144531 28.875 -27.28125 C 30.820312 -22.425781 32.851562 -17.75 34.96875 -13.25 C 38.332031 -22.519531 41.25 -31.703125 43.71875 -40.796875 C 46.1875 -49.898438 48.523438 -59.265625 50.734375 -68.890625 L 63.453125 -68.890625 C 60.273438 -55.910156 56.742188 -43.4375 52.859375 -31.46875 C 48.972656 -19.5 44.78125 -8.300781 40.28125 2.125 C 38.507812 6.09375 36.671875 9.507812 34.765625 12.375 C 32.867188 15.25 30.773438 17.613281 28.484375 19.46875 C 26.191406 21.320312 23.609375 22.691406 20.734375 23.578125 C 17.859375 24.460938 14.613281 24.90625 11 24.90625 C 10.019531 24.90625 9 24.835938 7.9375 24.703125 C 6.882812 24.578125 5.847656 24.398438 4.828125 24.171875 C 3.816406 23.953125 2.890625 23.707031 2.046875 23.4375 C 1.210938 23.175781 0.617188 22.957031 0.265625 22.78125 Z M 2.515625 12.84375 "/></g></g></g></g><g fill="#003985" fill-opacity="1"><g transform="translate(139.714481, 124.434)"><g><path d="M 26.625 -8.875 C 31.664062 -8.875 35.398438 -9.535156 37.828125 -10.859375 C 40.253906 -12.179688 41.46875 -14.300781 41.46875 -17.21875 C 41.46875 -20.226562 40.273438 -22.613281 37.890625 -24.375 C 35.503906 -26.144531 31.570312 -28.132812 26.09375 -30.34375 C 23.445312 -31.394531 20.910156 -32.472656 18.484375 -33.578125 C 16.054688 -34.679688 13.957031 -35.984375 12.1875 -37.484375 C 10.414062 -38.992188 9 -40.804688 7.9375 -42.921875 C 6.882812 -45.046875 6.359375 -47.648438 6.359375 -50.734375 C 6.359375 -56.835938 8.609375 -61.675781 13.109375 -65.25 C 17.617188 -68.820312 23.757812 -70.609375 31.53125 -70.609375 C 33.476562 -70.609375 35.421875 -70.5 37.359375 -70.28125 C 39.304688 -70.0625 41.117188 -69.796875 42.796875 -69.484375 C 44.472656 -69.179688 45.953125 -68.851562 47.234375 -68.5 C 48.515625 -68.144531 49.507812 -67.832031 50.21875 -67.5625 L 47.953125 -56.96875 C 46.628906 -57.675781 44.554688 -58.40625 41.734375 -59.15625 C 38.910156 -59.90625 35.507812 -60.28125 31.53125 -60.28125 C 28.082031 -60.28125 25.078125 -59.59375 22.515625 -58.21875 C 19.960938 -56.851562 18.6875 -54.710938 18.6875 -51.796875 C 18.6875 -50.296875 18.972656 -48.972656 19.546875 -47.828125 C 20.117188 -46.679688 21 -45.644531 22.1875 -44.71875 C 23.382812 -43.789062 24.863281 -42.925781 26.625 -42.125 C 28.394531 -41.332031 30.515625 -40.492188 32.984375 -39.609375 C 36.253906 -38.378906 39.171875 -37.164062 41.734375 -35.96875 C 44.296875 -34.78125 46.476562 -33.390625 48.28125 -31.796875 C 50.09375 -30.203125 51.484375 -28.28125 52.453125 -26.03125 C 53.429688 -23.78125 53.921875 -21.019531 53.921875 -17.75 C 53.921875 -11.394531 51.554688 -6.582031 46.828125 -3.3125 C 42.109375 -0.0390625 35.375 1.59375 26.625 1.59375 C 20.53125 1.59375 15.757812 1.082031 12.3125 0.0625 C 8.875 -0.945312 6.535156 -1.71875 5.296875 -2.25 L 7.546875 -12.84375 C 8.960938 -12.320312 11.210938 -11.53125 14.296875 -10.46875 C 17.390625 -9.40625 21.5 -8.875 26.625 -8.875 Z M 26.625 -8.875 "/></g></g></g><g fill="#003985" fill-opacity="1"><g transform="translate(200.124732, 124.434)"><g><path d="M 22.125 -68.890625 L 48.21875 -68.890625 L 48.21875 -58.5625 L 22.125 -58.5625 L 22.125 -26.765625 C 22.125 -23.316406 22.390625 -20.46875 22.921875 -18.21875 C 23.453125 -15.96875 24.242188 -14.203125 25.296875 -12.921875 C 26.359375 -11.640625 27.679688 -10.734375 29.265625 -10.203125 C 30.859375 -9.671875 32.71875 -9.40625 34.84375 -9.40625 C 38.550781 -9.40625 41.53125 -9.820312 43.78125 -10.65625 C 46.039062 -11.5 47.609375 -12.097656 48.484375 -12.453125 L 50.875 -2.25 C 49.632812 -1.632812 47.46875 -0.863281 44.375 0.0625 C 41.289062 0.988281 37.757812 1.453125 33.78125 1.453125 C 29.101562 1.453125 25.238281 0.855469 22.1875 -0.328125 C 19.144531 -1.523438 16.695312 -3.316406 14.84375 -5.703125 C 12.988281 -8.085938 11.679688 -11.019531 10.921875 -14.5 C 10.171875 -17.988281 9.796875 -22.03125 9.796875 -26.625 L 9.796875 -88.109375 L 22.125 -90.21875 Z M 22.125 -68.890625 "/></g></g></g><g fill="#003985" fill-opacity="1"><g transform="translate(254.705926, 124.434)"><g><path d="M 6.75 -34.3125 C 6.75 -40.40625 7.632812 -45.722656 9.40625 -50.265625 C 11.175781 -54.816406 13.515625 -58.59375 16.421875 -61.59375 C 19.335938 -64.601562 22.691406 -66.859375 26.484375 -68.359375 C 30.285156 -69.859375 34.175781 -70.609375 38.15625 -70.609375 C 47.425781 -70.609375 54.535156 -67.71875 59.484375 -61.9375 C 64.429688 -56.15625 66.90625 -47.34375 66.90625 -35.5 C 66.90625 -34.96875 66.90625 -34.28125 66.90625 -33.4375 C 66.90625 -32.601562 66.859375 -31.835938 66.765625 -31.140625 L 19.609375 -31.140625 C 20.140625 -23.984375 22.210938 -18.550781 25.828125 -14.84375 C 29.453125 -11.132812 35.109375 -9.28125 42.796875 -9.28125 C 47.117188 -9.28125 50.757812 -9.65625 53.71875 -10.40625 C 56.675781 -11.15625 58.90625 -11.882812 60.40625 -12.59375 L 62.140625 -2.25 C 60.640625 -1.457031 58.007812 -0.617188 54.25 0.265625 C 50.5 1.148438 46.238281 1.59375 41.46875 1.59375 C 35.457031 1.59375 30.265625 0.683594 25.890625 -1.125 C 21.523438 -2.9375 17.925781 -5.429688 15.09375 -8.609375 C 12.269531 -11.785156 10.171875 -15.5625 8.796875 -19.9375 C 7.429688 -24.3125 6.75 -29.101562 6.75 -34.3125 Z M 54.046875 -41.0625 C 54.140625 -46.632812 52.75 -51.207031 49.875 -54.78125 C 47.007812 -58.351562 43.054688 -60.140625 38.015625 -60.140625 C 35.191406 -60.140625 32.695312 -59.585938 30.53125 -58.484375 C 28.375 -57.378906 26.539062 -55.941406 25.03125 -54.171875 C 23.53125 -52.410156 22.359375 -50.378906 21.515625 -48.078125 C 20.679688 -45.785156 20.132812 -43.445312 19.875 -41.0625 Z M 54.046875 -41.0625 "/></g></g></g><g fill="#003985" fill-opacity="1"><g transform="translate(330.086203, 124.434)"><g><path d="M 10.59375 -66.90625 C 13.425781 -67.613281 17.160156 -68.363281 21.796875 -69.15625 C 26.429688 -69.945312 31.796875 -70.34375 37.890625 -70.34375 C 42.304688 -70.34375 46.015625 -69.742188 49.015625 -68.546875 C 52.023438 -67.359375 54.546875 -65.617188 56.578125 -63.328125 C 57.191406 -63.765625 58.160156 -64.378906 59.484375 -65.171875 C 60.804688 -65.972656 62.4375 -66.75 64.375 -67.5 C 66.320312 -68.25 68.488281 -68.910156 70.875 -69.484375 C 73.257812 -70.054688 75.820312 -70.34375 78.5625 -70.34375 C 83.863281 -70.34375 88.191406 -69.570312 91.546875 -68.03125 C 94.898438 -66.488281 97.523438 -64.300781 99.421875 -61.46875 C 101.328125 -58.644531 102.609375 -55.289062 103.265625 -51.40625 C 103.929688 -47.519531 104.265625 -43.28125 104.265625 -38.6875 L 104.265625 0 L 91.9375 0 L 91.9375 -36.03125 C 91.9375 -40.09375 91.738281 -43.582031 91.34375 -46.5 C 90.945312 -49.414062 90.195312 -51.84375 89.09375 -53.78125 C 87.988281 -55.726562 86.488281 -57.164062 84.59375 -58.09375 C 82.695312 -59.019531 80.242188 -59.484375 77.234375 -59.484375 C 73.085938 -59.484375 69.664062 -58.929688 66.96875 -57.828125 C 64.28125 -56.722656 62.445312 -55.726562 61.46875 -54.84375 C 62.175781 -52.550781 62.707031 -50.035156 63.0625 -47.296875 C 63.414062 -44.554688 63.59375 -41.6875 63.59375 -38.6875 L 63.59375 0 L 51.265625 0 L 51.265625 -36.03125 C 51.265625 -40.09375 51.046875 -43.582031 50.609375 -46.5 C 50.171875 -49.414062 49.398438 -51.84375 48.296875 -53.78125 C 47.191406 -55.726562 45.6875 -57.164062 43.78125 -58.09375 C 41.882812 -59.019531 39.476562 -59.484375 36.5625 -59.484375 C 35.320312 -59.484375 33.992188 -59.4375 32.578125 -59.34375 C 31.171875 -59.257812 29.828125 -59.148438 28.546875 -59.015625 C 27.265625 -58.890625 26.09375 -58.738281 25.03125 -58.5625 C 23.976562 -58.382812 23.273438 -58.25 22.921875 -58.15625 L 22.921875 0 L 10.59375 0 Z M 10.59375 -66.90625 "/></g></g></g><g fill="#003985" fill-opacity="1"><g transform="translate(445.474967, 124.434)"><g><path d="M 26.625 -8.875 C 31.664062 -8.875 35.398438 -9.535156 37.828125 -10.859375 C 40.253906 -12.179688 41.46875 -14.300781 41.46875 -17.21875 C 41.46875 -20.226562 40.273438 -22.613281 37.890625 -24.375 C 35.503906 -26.144531 31.570312 -28.132812 26.09375 -30.34375 C 23.445312 -31.394531 20.910156 -32.472656 18.484375 -33.578125 C 16.054688 -34.679688 13.957031 -35.984375 12.1875 -37.484375 C 10.414062 -38.992188 9 -40.804688 7.9375 -42.921875 C 6.882812 -45.046875 6.359375 -47.648438 6.359375 -50.734375 C 6.359375 -56.835938 8.609375 -61.675781 13.109375 -65.25 C 17.617188 -68.820312 23.757812 -70.609375 31.53125 -70.609375 C 33.476562 -70.609375 35.421875 -70.5 37.359375 -70.28125 C 39.304688 -70.0625 41.117188 -69.796875 42.796875 -69.484375 C 44.472656 -69.179688 45.953125 -68.851562 47.234375 -68.5 C 48.515625 -68.144531 49.507812 -67.832031 50.21875 -67.5625 L 47.953125 -56.96875 C 46.628906 -57.675781 44.554688 -58.40625 41.734375 -59.15625 C 38.910156 -59.90625 35.507812 -60.28125 31.53125 -60.28125 C 28.082031 -60.28125 25.078125 -59.59375 22.515625 -58.21875 C 19.960938 -56.851562 18.6875 -54.710938 18.6875 -51.796875 C 18.6875 -50.296875 18.972656 -48.972656 19.546875 -47.828125 C 20.117188 -46.679688 21 -45.644531 22.1875 -44.71875 C 23.382812 -43.789062 24.863281 -42.925781 26.625 -42.125 C 28.394531 -41.332031 30.515625 -40.492188 32.984375 -39.609375 C 36.253906 -38.378906 39.171875 -37.164062 41.734375 -35.96875 C 44.296875 -34.78125 46.476562 -33.390625 48.28125 -31.796875 C 50.09375 -30.203125 51.484375 -28.28125 52.453125 -26.03125 C 53.429688 -23.78125 53.921875 -21.019531 53.921875 -17.75 C 53.921875 -11.394531 51.554688 -6.582031 46.828125 -3.3125 C 42.109375 -0.0390625 35.375 1.59375 26.625 1.59375 C 20.53125 1.59375 15.757812 1.082031 12.3125 0.0625 C 8.875 -0.945312 6.535156 -1.71875 5.296875 -2.25 L 7.546875 -12.84375 C 8.960938 -12.320312 11.210938 -11.53125 14.296875 -10.46875 C 17.390625 -9.40625 21.5 -8.875 26.625 -8.875 Z M 26.625 -8.875 "/></g></g></g></g></g><g transform="matrix(1, 0, 0, 1, 341, 71)"><g clip-path="url(#2c679f37e8)"><g fill="#003985" fill-opacity="1"><g transform="translate(1.351865, 237.298235)"><g><path d="M 73.34375 -178.5 C 99.65625 -178.5 119.851562 -173.875 133.9375 -164.625 C 148.03125 -155.375 155.078125 -140.222656 155.078125 -119.171875 C 155.078125 -97.953125 147.945312 -82.628906 133.6875 -73.203125 C 119.425781 -63.785156 99.054688 -59.078125 72.578125 -59.078125 L 60.09375 -59.078125 L 60.09375 0 L 20.375 0 L 20.375 -173.921875 C 29.03125 -175.617188 38.195312 -176.804688 47.875 -177.484375 C 57.550781 -178.160156 66.039062 -178.5 73.34375 -178.5 Z M 75.890625 -144.640625 C 72.992188 -144.640625 70.144531 -144.550781 67.34375 -144.375 C 64.550781 -144.207031 62.132812 -144.039062 60.09375 -143.875 L 60.09375 -92.9375 L 72.578125 -92.9375 C 86.328125 -92.9375 96.679688 -94.800781 103.640625 -98.53125 C 110.597656 -102.269531 114.078125 -109.234375 114.078125 -119.421875 C 114.078125 -124.347656 113.1875 -128.421875 111.40625 -131.640625 C 109.625 -134.867188 107.078125 -137.457031 103.765625 -139.40625 C 100.453125 -141.363281 96.421875 -142.722656 91.671875 -143.484375 C 86.921875 -144.253906 81.660156 -144.640625 75.890625 -144.640625 Z M 75.890625 -144.640625 "/></g></g></g><g fill="#003985" fill-opacity="1"><g transform="translate(169.155872, 237.298235)"><g><path d="M 55.765625 0 L 17.828125 0 L 17.828125 -133.9375 L 55.765625 -133.9375 Z M 59.328125 -172.640625 C 59.328125 -165.679688 57.078125 -160.207031 52.578125 -156.21875 C 48.078125 -152.226562 42.773438 -150.234375 36.671875 -150.234375 C 30.554688 -150.234375 25.25 -152.226562 20.75 -156.21875 C 16.25 -160.207031 14 -165.679688 14 -172.640625 C 14 -179.609375 16.25 -185.082031 20.75 -189.0625 C 25.25 -193.050781 30.554688 -195.046875 36.671875 -195.046875 C 42.773438 -195.046875 48.078125 -193.050781 52.578125 -189.0625 C 57.078125 -185.082031 59.328125 -179.609375 59.328125 -172.640625 Z M 59.328125 -172.640625 "/></g></g></g><g fill="#003985" fill-opacity="1"><g transform="translate(246.564813, 237.298235)"><g><path d="M 71.046875 -93.203125 L 97.53125 -133.9375 L 136.734375 -133.9375 L 90.90625 -69.515625 C 101.09375 -56.785156 110.34375 -44.394531 118.65625 -32.34375 C 126.976562 -20.289062 133.601562 -9.507812 138.53125 0 L 97.78125 0 C 96.425781 -2.539062 94.726562 -5.722656 92.6875 -9.546875 C 90.65625 -13.367188 88.363281 -17.359375 85.8125 -21.515625 C 83.269531 -25.671875 80.597656 -29.828125 77.796875 -33.984375 C 74.992188 -38.148438 72.234375 -41.929688 69.515625 -45.328125 C 66.972656 -42.097656 64.382812 -38.53125 61.75 -34.625 C 59.113281 -30.726562 56.609375 -26.785156 54.234375 -22.796875 C 51.859375 -18.804688 49.523438 -14.859375 47.234375 -10.953125 C 44.941406 -7.046875 42.945312 -3.394531 41.25 0 L 2.546875 0 C 4.585938 -4.238281 7.390625 -9.242188 10.953125 -15.015625 C 14.515625 -20.796875 18.375 -26.78125 22.53125 -32.96875 C 26.695312 -39.164062 31.070312 -45.363281 35.65625 -51.5625 C 40.238281 -57.757812 44.734375 -63.570312 49.140625 -69 C 41.503906 -79.695312 33.863281 -90.519531 26.21875 -101.46875 C 18.582031 -112.425781 11.03125 -123.25 3.5625 -133.9375 L 44.5625 -133.9375 Z M 71.046875 -93.203125 "/></g></g></g><g fill="#003985" fill-opacity="1"><g transform="translate(391.451776, 237.298235)"><g><path d="M 16.546875 -167.296875 L 54.5 -173.40625 L 54.5 -133.9375 L 100.078125 -133.9375 L 100.078125 -102.359375 L 54.5 -102.359375 L 54.5 -55.25 C 54.5 -47.269531 55.894531 -40.90625 58.6875 -36.15625 C 61.488281 -31.40625 67.132812 -29.03125 75.625 -29.03125 C 79.695312 -29.03125 83.894531 -29.410156 88.21875 -30.171875 C 92.550781 -30.941406 96.503906 -32.003906 100.078125 -33.359375 L 105.421875 -3.8125 C 100.835938 -1.945312 95.742188 -0.335938 90.140625 1.015625 C 84.535156 2.378906 77.660156 3.0625 69.515625 3.0625 C 59.160156 3.0625 50.585938 1.660156 43.796875 -1.140625 C 37.003906 -3.941406 31.570312 -7.847656 27.5 -12.859375 C 23.425781 -17.867188 20.582031 -23.9375 18.96875 -31.0625 C 17.351562 -38.195312 16.546875 -46.09375 16.546875 -54.75 Z M 16.546875 -167.296875 "/></g></g></g><g fill="#003985" fill-opacity="1"><g transform="translate(508.32894, 237.298235)"><g><path d="M 98.546875 -100.328125 C 95.148438 -101.179688 91.160156 -102.070312 86.578125 -103 C 81.992188 -103.9375 77.070312 -104.40625 71.8125 -104.40625 C 69.4375 -104.40625 66.59375 -104.191406 63.28125 -103.765625 C 59.96875 -103.335938 57.460938 -102.867188 55.765625 -102.359375 L 55.765625 0 L 17.828125 0 L 17.828125 -126.8125 C 24.617188 -129.1875 32.640625 -131.429688 41.890625 -133.546875 C 51.140625 -135.671875 61.453125 -136.734375 72.828125 -136.734375 C 74.867188 -136.734375 77.332031 -136.609375 80.21875 -136.359375 C 83.101562 -136.109375 85.988281 -135.769531 88.875 -135.34375 C 91.757812 -134.914062 94.644531 -134.40625 97.53125 -133.8125 C 100.414062 -133.21875 102.875 -132.5 104.90625 -131.65625 Z M 98.546875 -100.328125 "/></g></g></g><g fill="#003985" fill-opacity="1"><g transform="translate(619.604195, 237.298235)"><g><path d="M 143.109375 -67.21875 C 143.109375 -56.695312 141.578125 -47.0625 138.515625 -38.3125 C 135.460938 -29.570312 131.050781 -22.101562 125.28125 -15.90625 C 119.507812 -9.71875 112.59375 -4.925781 104.53125 -1.53125 C 96.46875 1.863281 87.425781 3.5625 77.40625 3.5625 C 67.5625 3.5625 58.609375 1.863281 50.546875 -1.53125 C 42.484375 -4.925781 35.566406 -9.71875 29.796875 -15.90625 C 24.023438 -22.101562 19.523438 -29.570312 16.296875 -38.3125 C 13.066406 -47.0625 11.453125 -56.695312 11.453125 -67.21875 C 11.453125 -77.75 13.109375 -87.34375 16.421875 -96 C 19.734375 -104.65625 24.316406 -112.035156 30.171875 -118.140625 C 36.023438 -124.253906 42.984375 -129.007812 51.046875 -132.40625 C 59.117188 -135.800781 67.90625 -137.5 77.40625 -137.5 C 87.082031 -137.5 95.953125 -135.800781 104.015625 -132.40625 C 112.078125 -129.007812 118.992188 -124.253906 124.765625 -118.140625 C 130.546875 -112.035156 135.046875 -104.65625 138.265625 -96 C 141.492188 -87.34375 143.109375 -77.75 143.109375 -67.21875 Z M 104.40625 -67.21875 C 104.40625 -78.9375 102.066406 -88.144531 97.390625 -94.84375 C 92.722656 -101.550781 86.0625 -104.90625 77.40625 -104.90625 C 68.75 -104.90625 62.046875 -101.550781 57.296875 -94.84375 C 52.546875 -88.144531 50.171875 -78.9375 50.171875 -67.21875 C 50.171875 -55.507812 52.546875 -46.21875 57.296875 -39.34375 C 62.046875 -32.46875 68.75 -29.03125 77.40625 -29.03125 C 86.0625 -29.03125 92.722656 -32.46875 97.390625 -39.34375 C 102.066406 -46.21875 104.40625 -55.507812 104.40625 -67.21875 Z M 104.40625 -67.21875 "/></g></g></g><g fill="#003985" fill-opacity="1"><g transform="translate(777.986758, 237.298235)"><g><path d="M 17.828125 -129.359375 C 24.273438 -131.222656 32.59375 -132.960938 42.78125 -134.578125 C 52.96875 -136.191406 63.660156 -137 74.859375 -137 C 86.234375 -137 95.695312 -135.507812 103.25 -132.53125 C 110.8125 -129.5625 116.796875 -125.359375 121.203125 -119.921875 C 125.617188 -114.492188 128.757812 -108.046875 130.625 -100.578125 C 132.5 -93.109375 133.4375 -84.789062 133.4375 -75.625 L 133.4375 0 L 95.484375 0 L 95.484375 -71.046875 C 95.484375 -83.265625 93.867188 -91.921875 90.640625 -97.015625 C 87.421875 -102.109375 81.398438 -104.65625 72.578125 -104.65625 C 69.859375 -104.65625 66.96875 -104.523438 63.90625 -104.265625 C 60.851562 -104.015625 58.140625 -103.722656 55.765625 -103.390625 L 55.765625 0 L 17.828125 0 Z M 17.828125 -129.359375 "/></g></g></g></g></g><g clip-path="url(#38e692ad9b)"><g clip-path="url(#b498c36340)"><g clip-path="url(#2ea97e0de1)"><path fill="#fbbb0d" d="M 1322.277344 107.882812 L 1230.097656 103.785156 C 1212.292969 102.996094 1209.285156 137.675781 1230.382812 138.25 L 1287.738281 139.800781 L 1283.359375 197.519531 C 1282.023438 215.09375 1316.300781 216.949219 1317.28125 199.085938 Z M 1322.277344 107.882812 " fill-opacity="1" fill-rule="nonzero"/></g></g></g><g clip-path="url(#a49f988880)"><g clip-path="url(#3cb389631b)"><g clip-path="url(#844bb9b790)"><path fill="#003985" d="M 1376.828125 57.460938 L 1284.652344 53.363281 C 1266.847656 52.574219 1263.839844 87.253906 1284.933594 87.828125 L 1342.292969 89.382812 L 1337.914062 147.097656 C 1336.578125 164.671875 1370.855469 166.527344 1371.832031 148.664062 Z M 1376.828125 57.460938 " fill-opacity="1" fill-rule="nonzero"/></g></g></g></svg>